<svg id="Layer_1" data-name="Layer 1" xmlns="http://www.w3.org/2000/svg" viewBox="0 0 100 100"><defs><style>.cls-1{fill:#d71e3c;}.cls-2{fill:#fff;}</style></defs><title>Artboard 1</title><path class="cls-1" d="M100,51.47c0,34-15.51,47.9-49.5,47.9S1,85.46,1,51.47,16.5.37,50.49.37,100,17.48,100,51.47"/><path class="cls-2" d="M62.18,80H38.8A18.84,18.84,0,0,1,20,61.17V40.57A18.84,18.84,0,0,1,38.8,21.75H62.18A18.84,18.84,0,0,1,81,40.57v20.6A18.84,18.84,0,0,1,62.18,80ZM38.8,25.93A14.66,14.66,0,0,0,24.16,40.57v20.6A14.65,14.65,0,0,0,38.8,75.81H62.18A14.65,14.65,0,0,0,76.82,61.17V40.57A14.66,14.66,0,0,0,62.18,25.93Z"/><path class="cls-2" d="M50.49,67.62A16.75,16.75,0,1,1,67.24,50.87,16.76,16.76,0,0,1,50.49,67.62Zm0-29.32A12.57,12.57,0,1,0,63.06,50.87,12.59,12.59,0,0,0,50.49,38.3Z"/><path class="cls-2" d="M70.46,34.64A3.48,3.48,0,1,1,67,31.16,3.47,3.47,0,0,1,70.46,34.64Z"/></svg>